Coordinates
version=1
nRows=29
nColumns=24
inDegrees=yes

Units are S.I. units (second, meters, Newtons, ...)
Angles are in degrees.

endheader
time	pelvis_tilt	pelvis_list	pelvis_rotation	pelvis_tx	pelvis_ty	pelvis_tz	hip_flexion_r	hip_adduction_r	hip_rotation_r	knee_angle_r	ankle_angle_r	subtalar_angle_r	mtp_angle_r	hip_flexion_l	hip_adduction_l	hip_rotation_l	knee_angle_l	ankle_angle_l	subtalar_angle_l	mtp_angle_l	lumbar_extension	lumbar_bending	lumbar_rotation
      1.41633333	      0.98464947	      5.21395126	     -4.43937891	      0.48446873	      1.01687336	      0.34997310	     20.44816391	     -3.60807721	      3.70134400	    -25.77429352	      7.68486617	    -11.99296346	      2.50998632	    -12.96279173	     12.12159736	      2.84349353	     -0.31326876	      2.36303019	    -14.02216480	     -3.98335181	    -13.01585594	      1.60884077	     -6.73085222
      1.42050000	      0.83222049	      5.18311692	     -4.43720692	      0.48946020	      1.01647301	      0.35005940	     20.51456869	     -3.49001063	      3.63621640	    -24.04658377	      7.39259591	    -11.74212871	      2.53187335	    -13.15219258	     12.07481307	      2.66076228	     -0.21048801	      2.35808062	    -13.71854545	     -3.86719863	    -12.89048444	      1.69022444	     -6.80072345
      1.42466667	      0.65245136	      5.20822823	     -4.43845885	      0.49446988	      1.01594991	      0.35011208	     20.64363919	     -3.44001095	      3.50794549	    -22.40353222	      7.13537089	    -11.32061405	      2.56515779	    -13.31333508	     12.09117216	      2.52882953	     -0.09517820	      2.27824617	    -13.50875158	     -3.77062709	    -12.71163711	      1.68775113	     -6.80628809
      1.42883333	      0.50352242	      5.23525977	     -4.44118502	      0.49949938	      1.01545495	      0.35016864	     20.71773340	     -3.39020313	      3.38993710	    -20.74600629	      6.81908392	    -10.94028488	      2.64846923	    -13.49970587	     12.11040464	      2.40263556	      0.00065177	      2.23311130	    -13.22952715	     -3.58621520	    -12.56392305	      1.70656537	     -6.85304495
      1.43300000	      0.30200259	      5.28721736	     -4.43329973	      0.50455226	      1.01482809	      0.35019377	     20.86812834	     -3.36839199	      3.21469416	    -19.16551065	      6.56821000	    -10.43725768	      2.67900002	    -13.61641893	     12.15552565	      2.32528065	      0.06960549	      2.11847470	    -13.12047583	     -3.53207635	    -12.35273754	      1.68517575	     -6.82947287
      1.43716667	      0.15699086	      5.32132403	     -4.42070647	      0.50963320	      1.01427612	      0.35022271	     20.93497785	     -3.33137757	      3.02111037	    -17.58643691	      6.30932165	     -9.95230128	      2.72125478	    -13.78861640	     12.18301514	      2.25315217	      0.12013743	      2.04385607	    -12.98425783	     -3.46427129	    -12.20406275	      1.68313840	     -6.83652401
      1.44133333	      0.01458252	      5.35960525	     -4.41330350	      0.51474344	      1.01368207	      0.35024803	     20.99855253	     -3.29423872	      2.82890323	    -16.05082046	      6.04662860	     -9.44875357	      2.76840368	    -13.95488523	     12.21732395	      2.18885891	      0.15048801	      1.97278338	    -12.84231047	     -3.39520914	    -12.06370476	      1.68699481	     -6.84683373
      1.44550000	     -0.12170859	      5.40534478	     -4.40200558	      0.51986784	      1.01307349	      0.35028086	     21.05493727	     -3.26142646	      2.63680158	    -14.56593810	      5.80630742	     -8.93416032	      2.81492487	    -14.11421149	     12.25783215	      2.14236493	      0.15181367	      1.90619004	    -12.70671972	     -3.33128296	    -11.93456161	      1.67773399	     -6.85734408
      1.44966667	     -0.22922719	      5.43326748	     -4.38117164	      0.52504894	      1.01248805	      0.35030273	     21.07176997	     -3.21376223	      2.40785132	    -13.13137185	      5.59832109	     -8.41688199	      2.88379163	    -14.29590467	     12.27984017	      2.08038249	      0.12450796	      1.87300911	    -12.56547017	     -3.24021731	    -11.82566945	      1.68377541	     -6.88583639
      1.45383333	     -0.34136431	      5.48717257	     -4.36818955	      0.53022433	      1.01185261	      0.35032743	     21.10878192	     -3.18527951	      2.21304203	    -11.77891926	      5.41729106	     -7.88446153	      2.94649960	    -14.45706986	     12.33118824	      2.04806820	      0.07017085	      1.82755251	    -12.43946168	     -3.15972780	    -11.71666464	      1.67021633	     -6.90170765
      1.45800000	     -0.37631933	      5.50167630	     -4.35683649	      0.53545307	      1.01131317	      0.35037351	     21.04507981	     -3.12029386	      2.00305028	    -10.46532453	      5.25592319	     -7.38506620	      5.81626312	    -14.67344880	     12.34111811	      1.88261505	     -0.04616268	      1.81167582	    -12.15091475	      0.50522535	    -11.71523046	      1.69095013	     -6.93438999
      1.46216667	     -0.50469249	      5.55126664	     -4.32556149	      0.54069890	      1.01062664	      0.35037069	     21.10697806	     -3.08545840	      1.79365962	     -9.27315922	      5.13469662	     -6.85257518	      5.83055774	    -14.79867836	     12.38412067	      1.90056034	     -0.14965574	      1.75646786	    -12.10880292	      0.51304874	    -11.56955058	      1.67582272	     -6.94775998
      1.46633333	     -0.53697903	      5.57766941	     -4.29029368	      0.54596519	      1.01006644	      0.35035720	     21.06561499	     -3.03866081	      1.56444165	     -8.16738393	      5.13424588	     -6.23427033	      5.87182626	    -15.01269148	     12.40619304	      1.91346014	     -0.29212052	      1.73963447	    -12.00970644	      0.55074965	    -11.56096886	      1.70699402	     -7.01657328
      1.47050000	     -0.64290978	      5.61427009	     -4.27145062	      0.55126193	      1.00938403	      0.35038309	     21.10622068	     -2.98053783	      1.42903164	     -7.13098002	      5.05803520	     -5.75187241	      5.89358269	    -15.13524710	     12.43894821	      1.91924466	     -0.45570772	      1.71335724	    -11.96041321	      0.57564498	    -11.44200736	      1.69620669	     -7.00945423
      1.47466667	     -0.70743548	      5.63946025	     -4.23429314	      0.55658091	      1.00877082	      0.35037484	     21.10408305	     -2.92262738	      1.27089924	     -6.18594730	      5.04371540	     -5.24396955	      5.92402433	    -15.28325944	     12.45781442	      1.93418734	     -0.66620458	      1.71255677	    -11.88823948	      0.61621390	    -11.37859571	      1.71425734	     -7.02303936
      1.47883333	     -0.74385251	      5.65198549	     -4.18830963	      0.56191809	      1.00818410	      0.35033708	     21.08971985	     -2.86029565	      1.09111291	     -5.36814126	      5.14727029	     -4.68099954	      5.98483590	    -15.43815742	     12.46290877	      1.92417956	     -0.92999348	      1.73226210	    -11.76732941	      0.70960180	    -11.36356386	      1.75777335	     -7.07314449
      1.48300000	     -0.82115479	      5.67872047	     -4.16978435	      0.56727458	      1.00754064	      0.35036696	     21.11136438	     -2.79235540	      1.06910419	     -4.60007718	      5.14701312	     -4.27603417	      6.01543778	    -15.54931837	     12.48640342	      1.95676827	     -1.18682110	      1.74030098	    -11.72107781	      0.76212475	    -11.28032953	      1.76838110	     -7.07201478
      1.48716667	     -0.82582481	      5.66449938	     -4.11780205	      0.57267140	      1.00701597	      0.35031933	     21.06619362	     -2.70950064	      0.93317108	     -3.96643781	      5.29086519	     -3.75574940	      6.10917858	    -15.70673745	     12.46255388	      1.92724850	     -1.52356366	      1.79594730	    -11.55177864	      0.95059436	    -11.29069684	      1.83611057	     -7.13211382
      1.49133333	     -0.90207850	      5.67264617	     -4.08643177	      0.57807576	      1.00639130	      0.35032657	     21.08582280	     -2.63009089	      0.97964617	     -3.37174889	      5.29826714	     -3.45854004	      6.13995868	    -15.78229067	     12.46498251	      1.96147317	     -1.86198665	      1.80258065	    -11.54001863	      1.01760650	    -11.21367155	      1.87932343	     -7.11585631
      1.49550000	     -0.93273574	      5.66576806	     -4.04078964	      0.58349611	      1.00582553	      0.35030070	     21.08736048	     -2.55188313	      0.96311420	     -2.94211364	      5.44207740	     -3.01511932	      6.30979821	    -15.86275021	     12.44603973	      1.89721517	     -2.29891696	      1.91016632	    -11.27171446	      1.44565892	    -11.18611427	      1.95033481	     -7.19148812
      1.49966667	     -0.99419189	      5.64191241	     -3.99203309	      0.58895356	      1.00524808	      0.35027180	     21.09144839	     -2.45450977	      1.05613011	     -2.53160077	      5.41856799	     -2.83203374	      6.34698874	    -15.92034038	     12.41276645	      1.95297009	     -2.71695216	      1.90000243	    -11.29973424	      1.54671780	    -11.13346438	      2.03445755	     -7.15537185
      1.50383333	     -1.02883542	      5.62956354	     -3.94400722	      0.59441783	      1.00471785	      0.35026157	     21.07840844	     -2.37264285	      1.20621322	     -2.23373772	      5.48551740	     -2.68818094	      6.36141313	    -15.99220016	     12.39136104	      2.00731369	     -3.15685661	      1.84079025	    -11.30841313	      1.58072286	    -11.11559772	      2.09640006	     -7.14053696
      1.50800000	     -1.06803009	      5.57991233	     -3.90774679	      0.59993224	      1.00417322	      0.35029219	     21.07198291	     -2.25130324	      1.36866696	     -2.02797758	      5.47310814	     -2.50731373	      6.62669163	    -15.98073730	     12.32050159	      1.78095191	     -3.77283429	      2.09186143	    -10.83812319	      2.45713306	    -11.06259228	      2.20473060	     -7.24609033
      1.51216667	     -1.07155929	      5.50830143	     -3.84261518	      0.60551926	      1.00372192	      0.35023249	     21.00167345	     -2.12903578	      1.52802499	     -1.86360988	      5.37552380	     -2.48368635	      7.85058483	    -16.07483824	     12.23584002	      1.85102947	     -4.24160362	      1.89174899	    -10.98103465	      6.66753007	    -11.05950146	      2.35576614	     -7.18446015
      1.51633333	     -1.09165854	      5.46421960	     -3.78237158	      0.61108896	      1.00324157	      0.35019655	     20.97452157	     -2.03439242	      1.74309339	     -1.82655348	      5.35878363	     -2.39304319	      7.85661462	    -16.10828815	     12.17998516	      1.90517805	     -4.80513167	      1.86432302	    -11.00604998	      6.67782136	    -11.03739460	      2.44329038	     -7.16881507
      1.52050000	     -1.16887137	      5.40693161	     -3.71157356	      0.61668715	      1.00270120	      0.35018020	     21.00165372	     -1.92264823	      2.03195654	     -1.85470451	      5.21482910	     -2.50469992	      7.88577829	    -16.02260588	     12.09462906	      1.81545518	     -5.49397430	      1.98290615	    -10.70986425	      6.79023640	    -10.93381323	      2.58563354	     -7.19740563
      1.52466667	     -1.15984254	      5.33642626	     -3.65984724	      0.62232078	      1.00227480	      0.35014742	     20.96058875	     -1.80686822	      2.26910728	     -2.00947148	      5.14034346	     -2.47295075	      7.89395256	    -16.05379944	     12.01501650	      1.83379905	     -6.12319096	      1.90837616	    -10.73713119	      6.82043036	    -10.95586492	      2.71632403	     -7.18244572
      1.52883333	     -1.22671765	      5.26768783	     -3.58921714	      0.62798238	      1.00176943	      0.35017243	     20.96772445	     -1.68591825	      2.65528631	     -2.16469103	      4.89727447	     -2.76808535	      7.93909153	    -15.93539649	     11.91000036	      1.68484224	     -6.89744511	      2.00417444	    -10.37960957	      7.05153453	    -10.85693787	      2.86019026	     -7.19663224
      1.53300000	     -1.25114926	      5.18405536	     -3.52765238	      0.63368593	      1.00132027	      0.35017369	     20.94748378	     -1.55538676	      2.99969542	     -2.42575646	      4.66899857	     -2.99059459	      8.00201571	    -15.86123732	     11.79918231	      1.57415740	     -7.67240431	      2.01481399	    -10.14875091	      7.37859208	    -10.82016099	      3.01328009	     -7.18933375
